<?xml version="1.0" encoding="UTF-8"?>
<svg xmlns="http://www.w3.org/2000/svg" viewBox="0 0 511.000000 412.000000">
<defs><linearGradient id="gG" x1="0" y1="0" x2="0" y2="1"><stop offset="0" stop-color="#EDD9A6"/><stop offset="1" stop-color="#A8884E"/></linearGradient></defs>
<g transform="translate(0.000000,412.000000) scale(0.100000,-0.100000)"
fill="url(#gG)" stroke="none">
<path d="M3620 3934 c-127 -22 -270 -66 -270 -83 0 -4 -17 -13 -38 -19 -84
-26 -373 -233 -423 -304 -32 -45 -34 -48 -67 -88 -60 -73 -129 -188 -171 -285
-23 -55 -51 -119 -62 -143 -10 -23 -19 -52 -19 -63 0 -34 -22 -16 -52 42 -15
30 -30 61 -33 69 -3 8 -17 33 -30 55 -14 22 -30 50 -36 63 -7 12 -16 22 -21
22 -4 0 -8 4 -8 9 0 17 -80 131 -100 144 -11 6 -20 15 -20 19 0 14 -181 178
-239 217 -20 14 -47 32 -61 41 -158 106 -364 160 -610 160 -194 0 -312 -24
-490 -102 -64 -27 -190 -107 -245 -155 -27 -24 -53 -43 -57 -43 -10 0 -118
-108 -118 -118 0 -5 -15 -26 -33 -48 -98 -115 -217 -347 -217 -421 0 -7 -9
-41 -20 -74 -19 -55 -20 -81 -18 -267 3 -200 4 -211 36 -321 43 -149 116 -297
217 -436 99 -136 375 -410 485 -480 19 -12 60 -42 90 -66 87 -69 204 -155 220
-161 8 -3 46 -29 83 -57 37 -28 71 -51 74 -51 3 0 21 -11 39 -25 18 -14 35
-25 39 -25 3 0 58 -34 121 -75 63 -41 119 -75 123 -75 5 0 14 -7 21 -15 6 -8
56 -44 111 -80 54 -36 107 -73 117 -82 10 -10 42 -38 72 -62 90 -73 259 -242
302 -303 45 -63 65 -76 86 -54 20 20 -1 117 -35 163 -12 17 -23 34 -23 37 0 3
-26 43 -57 88 -61 88 -153 184 -242 252 -30 22 -69 55 -87 71 -35 34 -206 163
-322 243 -42 30 -117 83 -167 119 -49 37 -106 78 -125 91 -19 14 -42 32 -50
39 -19 17 -191 143 -195 143 -3 0 -37 29 -120 100 -29 25 -61 52 -71 61 -10 8
-39 39 -64 69 -25 30 -55 63 -68 74 -12 11 -22 26 -22 33 0 7 -4 13 -9 13 -6
0 -32 30 -58 67 -66 92 -67 94 -113 198 -12 28 -32 73 -46 101 -81 171 -86
516 -10 679 13 28 39 81 57 120 34 73 67 115 184 228 98 96 183 150 325 204
141 53 155 56 355 56 224 1 244 -3 460 -92 202 -82 442 -327 553 -564 18 -37
32 -70 32 -75 0 -22 58 -123 73 -128 28 -9 64 31 72 80 4 22 11 46 15 51 4 6
15 35 24 65 45 152 181 393 282 498 24 24 45 50 48 58 3 8 10 14 17 14 6 0 20
12 32 26 22 28 168 140 202 155 11 5 27 13 35 19 22 14 155 69 224 93 94 32
416 31 496 -2 291 -120 417 -245 532 -531 37 -91 40 -111 45 -320 5 -194 -3
-259 -39 -332 -10 -21 -18 -42 -18 -49 0 -6 -7 -25 -15 -42 -8 -18 -23 -56
-35 -85 -11 -29 -40 -88 -65 -132 -25 -44 -45 -81 -45 -83 0 -6 -110 -171
-118 -176 -4 -4 -19 -24 -32 -46 -13 -22 -29 -47 -36 -55 -7 -8 -48 -58 -91
-110 -117 -142 -123 -148 -193 -224 -36 -38 -263 -268 -505 -511 -255 -257
-469 -480 -510 -533 -38 -50 -73 -92 -77 -92 -5 0 -8 -5 -8 -11 0 -6 -20 -37
-45 -69 -25 -32 -45 -62 -45 -65 0 -7 -49 -91 -88 -152 l-14 -23 113 0 114 1
59 67 c117 134 362 376 476 473 36 30 81 70 101 89 56 54 177 162 251 224 37
31 71 63 75 70 8 11 96 93 156 144 15 12 32 22 37 22 6 0 10 4 10 10 0 5 37
45 82 87 118 113 215 212 278 284 30 34 61 68 68 75 6 7 12 17 12 22 0 5 9 16
19 23 28 20 221 280 221 298 0 4 8 15 18 24 10 9 31 45 48 79 16 35 31 65 34
68 17 16 44 69 66 132 15 40 37 96 51 125 44 95 65 236 66 453 1 256 -19 358
-102 528 -17 34 -31 65 -31 68 0 3 -29 49 -64 102 -125 190 -308 336 -527 422
-61 24 -339 70 -415 69 -32 -1 -120 -12 -194 -25z"/>
</g>
</svg>