<?xml version="1.0" encoding="UTF-8"?>
<svg xmlns="http://www.w3.org/2000/svg" viewBox="0 0 3327.000000 577.000000">
<defs><linearGradient id="gS" x1="0" y1="0" x2="0" y2="1"><stop offset="0" stop-color="#F4F6F8"/><stop offset="1" stop-color="#A3A8AF"/></linearGradient><linearGradient id="gG" x1="0" y1="0" x2="0" y2="1"><stop offset="0" stop-color="#EDD9A6"/><stop offset="1" stop-color="#A8884E"/></linearGradient></defs>
<g transform="translate(0.000000,577.000000) scale(0.100000,-0.100000)"
fill="url(#gS)" stroke="none">
<path d="M14773 5403 c26 -2 68 -2 95 0 26 2 4 3 -48 3 -52 0 -74 -1 -47 -3z"/>
<path d="M17203 5293 c31 -2 83 -2 115 0 31 2 5 3 -58 3 -63 0 -89 -1 -57 -3z"/>
<path d="M18200 5160 c11 -16 26 -33 32 -36 7 -4 -1 9 -16 29 -34 44 -46 50
-16 7z"/>
<path d="M14938 5073 c23 -2 59 -2 80 0 20 2 1 4 -43 4 -44 0 -61 -2 -37 -4z"/>
<path d="M10865 4840 c-27 -10 -62 -19 -77 -19 -55 -2 -229 -55 -294 -90 -127
-69 -278 -182 -348 -262 -21 -24 -50 -57 -65 -74 -33 -36 -105 -143 -130 -194
-9 -20 -22 -45 -28 -56 -7 -11 -20 -40 -31 -65 -10 -25 -27 -63 -37 -85 -35
-78 -41 -107 -74 -355 -27 -195 -31 -271 -21 -338 5 -31 17 -112 25 -181 17
-131 37 -225 60 -276 7 -16 26 -59 42 -95 24 -56 60 -125 98 -188 111 -185
322 -385 516 -490 96 -51 122 -60 314 -109 203 -51 421 -42 670 28 56 16 164
67 202 95 17 13 35 24 38 24 34 0 277 228 296 276 4 13 13 24 18 24 7 0 43 47
93 124 22 32 77 138 83 158 4 13 13 30 20 38 16 20 58 154 78 255 50 243 60
443 32 592 -8 43 -15 92 -15 108 0 27 -43 201 -71 285 -17 51 -125 267 -150
298 -11 15 -38 52 -60 82 -156 216 -413 402 -624 451 -49 12 -118 30 -153 40
-86 26 -332 25 -407 -1z m39 -55 c-22 -17 -54 -20 -54 -5 0 6 11 10 24 10 14
0 28 5 31 11 4 6 10 8 13 5 3 -4 -3 -13 -14 -21z m446 -5 c12 -8 9 -10 -12
-10 -16 0 -28 5 -28 10 0 13 20 13 40 0z m-153 -39 c163 -19 325 -141 437
-329 31 -51 56 -97 56 -102 0 -4 6 -21 14 -37 48 -95 98 -245 119 -358 47
-248 47 -245 47 -562 0 -296 -1 -316 -29 -473 -32 -186 -45 -237 -71 -295 -11
-22 -31 -71 -45 -109 -73 -198 -233 -367 -403 -428 -84 -29 -335 -37 -418 -13
-71 20 -172 62 -190 78 -7 7 -37 30 -66 51 -56 42 -139 135 -178 201 -13 22
-27 42 -30 45 -14 13 -71 145 -95 221 -14 46 -30 91 -35 101 -20 37 -49 203
-61 351 -18 242 0 747 31 841 6 16 10 40 10 52 0 13 11 52 24 86 13 35 33 92
44 128 28 88 50 139 75 175 12 17 33 52 47 79 29 57 146 182 205 218 114 71
316 102 512 79z m-509 -26 c13 -13 -57 -62 -82 -58 -16 3 -28 -2 -38 -15 -8
-12 -18 -18 -23 -14 -14 10 -17 52 -4 52 6 0 20 12 32 26 18 23 26 26 64 21
24 -2 47 -8 51 -12z m906 -59 c43 -38 41 -57 -7 -53 -35 2 -62 29 -53 52 3 8
0 15 -7 15 -8 0 -6 4 3 10 21 13 20 14 64 -24z m-1164 -123 c0 -22 -27 -46
-33 -30 -3 6 -8 -3 -12 -20 -10 -44 -35 -65 -35 -30 0 14 -3 32 -6 41 -4 11
-1 16 10 16 8 0 18 11 22 25 3 14 10 22 15 19 5 -3 9 0 9 7 0 8 4 8 15 -1 8
-7 15 -19 15 -27z m-178 -68 c9 -10 -4 -56 -15 -52 -21 7 -27 57 -8 57 10 0
20 -2 23 -5z m1594 -232 c-3 -10 1 -31 9 -47 18 -35 19 -101 1 -141 -12 -27
-14 -28 -21 -10 -4 11 -11 29 -16 40 -9 18 -9 29 -8 93 0 12 4 22 8 22 5 0 11
14 15 30 3 17 8 30 11 30 4 0 4 -8 1 -17z m-1542 -70 c4 -14 3 -29 -2 -32 -4
-3 -12 -14 -15 -25 -11 -30 -38 -1 -31 33 13 53 38 66 48 24z m1906 -282 c0
-11 -4 -22 -9 -25 -5 -3 -8 6 -8 19 0 14 3 25 8 25 5 0 9 -9 9 -19z"/>
<path d="M2250 4812 c-53 -7 -88 -23 -94 -44 -8 -33 8 -45 72 -52 31 -4 82
-13 112 -21 30 -8 67 -15 81 -15 14 0 39 -11 55 -25 l29 -25 3 -1266 c2 -1200
1 -1267 -15 -1280 -20 -14 -77 -22 -200 -28 -108 -6 -151 -31 -109 -65 14 -12
797 -8 817 4 15 10 10 44 -9 54 -10 5 -51 10 -91 10 -41 0 -104 8 -142 18 -62
16 -68 19 -73 48 -18 92 -26 516 -25 1305 l0 885 21 -55 c11 -30 21 -67 22
-81 0 -15 6 -25 11 -23 6 2 20 -24 32 -59 58 -168 96 -270 109 -292 6 -11 23
-60 38 -110 15 -49 36 -110 46 -135 40 -99 51 -128 79 -205 16 -44 40 -109 54
-145 48 -127 133 -357 181 -495 4 -11 16 -42 26 -70 28 -75 70 -208 70 -222 0
-7 4 -13 9 -13 5 0 11 -10 14 -22 5 -25 23 -75 43 -123 6 -16 15 -45 19 -64
10 -49 53 -143 78 -168 34 -38 52 -30 67 31 5 17 18 56 30 86 12 30 39 118 60
195 35 129 50 178 71 230 5 11 17 56 28 100 11 44 32 114 46 155 14 41 33 102
42 135 9 33 19 69 23 80 24 62 101 299 115 354 9 35 25 83 35 105 11 23 35 97
55 166 20 69 45 150 56 180 11 30 35 109 55 175 19 66 42 135 50 152 8 18 24
67 34 109 11 43 22 80 25 82 4 5 11 -1465 9 -1993 -1 -268 -1 -269 -67 -290
-29 -9 -106 -21 -172 -27 -122 -10 -151 -21 -139 -51 11 -30 49 -32 610 -32
584 0 584 0 584 46 0 26 -26 35 -90 33 -68 -2 -212 15 -224 27 -6 5 -20 9 -33
9 -49 0 -48 -17 -51 1140 -3 1143 3 1394 34 1417 27 20 120 45 229 62 l100 16
3 31 c6 59 5 59 -393 62 -219 2 -371 -1 -387 -7 -20 -8 -28 -21 -38 -62 -7
-28 -26 -88 -42 -133 -16 -44 -40 -118 -52 -163 -12 -45 -25 -86 -29 -89 -4
-4 -7 -19 -7 -33 0 -15 -6 -35 -13 -46 -16 -23 -53 -136 -92 -275 -15 -52 -33
-106 -40 -120 -8 -14 -25 -70 -40 -125 -14 -55 -30 -109 -35 -120 -14 -31 -75
-224 -89 -280 -7 -27 -18 -63 -26 -80 -15 -33 -51 -155 -85 -285 -12 -47 -28
-101 -36 -120 -7 -19 -16 -45 -19 -57 -7 -24 -25 -32 -25 -11 0 6 -9 30 -19
52 -11 23 -29 70 -42 106 -12 36 -25 70 -29 75 -4 6 -10 24 -14 40 -4 17 -18
55 -31 85 -24 55 -68 175 -175 475 -31 88 -64 174 -72 190 -8 17 -21 53 -28
80 -8 28 -20 61 -27 75 -7 14 -13 33 -13 42 0 9 -4 19 -9 23 -6 3 -24 49 -41
103 -32 101 -60 173 -70 182 -4 3 -19 46 -34 95 -15 50 -38 115 -52 146 -13
31 -37 93 -53 138 -16 46 -33 86 -36 90 -7 6 -606 9 -655 3z m230 -31 c0 -13
-60 -32 -82 -26 -47 15 -54 30 -17 35 40 6 99 1 99 -9z m2250 -33 c0 -26 -13
-16 -17 13 -2 12 1 18 7 14 5 -3 10 -16 10 -27z m-41 -155 c0 -29 -2 -33 -8
-18 -7 18 -4 55 5 55 2 0 4 -17 3 -37z m-1750 -71 c1 -17 -4 -23 -16 -20 -21
4 -27 58 -9 70 12 8 24 -15 25 -50z m1726 16 c2 -13 5 -29 6 -37 2 -8 -4 -17
-13 -19 -15 -3 -18 4 -18 49 0 54 19 59 25 7z m-459 -285 c-11 -11 -19 6 -11
24 8 17 8 17 12 0 3 -10 2 -21 -1 -24z m-26 -130 c-1 -48 -28 -138 -30 -95 0
7 -4 10 -10 7 -10 -6 -13 20 -10 90 2 49 6 55 31 55 17 0 19 -7 19 -57z
m-1350 8 c0 -81 -34 -80 -54 2 -6 25 -4 27 24 27 26 0 30 -3 30 -29z m-220 -3
c-1 -7 -7 -24 -15 -38 l-13 -25 -7 27 c-4 15 -4 32 0 37 9 15 35 14 35 -1z
m272 -228 c3 -19 0 -30 -8 -30 -11 0 -25 55 -16 65 10 9 20 -6 24 -35z m1191
-84 c-19 -58 -36 -68 -41 -23 -2 19 4 30 22 43 14 9 26 23 26 32 0 8 2 13 5
10 3 -3 -2 -31 -12 -62z m-65 -232 c-2 -22 -7 -39 -13 -39 -5 0 -16 -4 -22 -8
-18 -11 -16 11 2 47 8 15 15 35 15 44 0 11 3 13 11 5 6 -6 9 -28 7 -49z m-738
-19 c0 -11 -21 -25 -36 -25 -2 0 -4 16 -4 37 0 35 0 36 20 18 11 -10 20 -24
20 -30z"/>
<path d="M6224 4811 c-299 -6 -314 -9 -314 -56 0 -22 22 -50 32 -40 12 12 217
-32 285 -61 27 -12 33 -21 37 -57 8 -62 14 -2360 7 -2441 l-6 -70 -50 -13
c-54 -15 -115 -21 -212 -22 -51 -1 -64 -5 -73 -20 -27 -51 -29 -51 403 -45
221 3 406 9 410 13 5 5 7 17 5 27 -4 22 -38 31 -123 33 -33 0 -90 8 -126 18
l-66 17 -7 122 c-3 68 -6 556 -6 1084 l1 962 25 -47 c23 -44 35 -73 86 -220
12 -33 29 -75 40 -93 10 -18 18 -39 18 -47 0 -7 23 -73 51 -147 28 -73 82
-221 120 -328 39 -107 79 -217 90 -244 10 -27 19 -53 19 -59 0 -6 6 -18 13
-26 8 -9 24 -50 36 -91 22 -71 61 -181 81 -225 5 -11 20 -53 33 -93 14 -40 27
-76 31 -79 3 -4 6 -15 6 -27 0 -11 9 -40 21 -65 30 -65 33 -76 64 -176 15 -49
40 -117 55 -150 15 -33 32 -73 36 -89 5 -16 17 -34 26 -40 32 -20 51 6 81 105
15 52 50 164 77 249 27 85 54 175 61 200 13 53 96 320 145 470 19 58 46 143
58 190 13 47 31 103 39 125 42 113 57 157 77 230 13 44 33 112 47 150 13 39
35 108 50 155 14 47 41 130 60 184 34 101 33 115 -5 116 -9 0 -11 7 -7 20 3
10 10 41 14 68 4 27 14 58 23 70 14 21 15 15 12 -70 -3 -100 7 -96 26 10 19
100 22 112 31 118 5 3 10 -407 10 -968 2 -1152 0 -1296 -14 -1318 -18 -30
-208 -70 -327 -70 -29 0 -39 -4 -43 -20 -15 -57 45 -62 684 -58 504 3 509 4
509 50 0 25 -5 26 -146 37 -67 5 -147 17 -177 26 -52 15 -57 19 -64 53 -10 48
-9 2368 1 2444 7 52 11 59 39 72 49 23 134 44 221 56 110 14 137 44 80 89 -26
20 -38 21 -379 21 -381 0 -411 -3 -421 -48 -20 -86 -37 -142 -78 -267 -63
-191 -72 -222 -86 -280 -6 -27 -15 -54 -19 -60 -10 -13 -41 -105 -76 -220 -15
-49 -33 -106 -41 -125 -7 -19 -27 -82 -43 -140 -30 -104 -95 -307 -112 -345
-4 -11 -13 -40 -19 -65 -6 -25 -26 -90 -45 -145 -18 -55 -45 -153 -60 -217
-34 -146 -45 -151 -80 -33 -10 33 -29 85 -43 115 -13 30 -35 91 -49 135 -14
44 -43 122 -64 174 -22 51 -39 98 -39 104 0 14 -45 138 -70 192 -10 22 -23 58
-30 80 -7 22 -19 57 -26 78 -24 65 -41 111 -57 152 -9 22 -27 74 -42 115 -14
41 -35 95 -45 120 -10 25 -33 86 -50 135 -17 50 -35 99 -40 110 -21 46 -43
103 -60 155 -34 101 -85 235 -96 254 -14 24 -56 25 -440 17z m2530 -31 c12
-12 -35 -30 -75 -30 -33 0 -43 35 -11 42 24 6 75 -2 86 -12z m-250 -3 c-6 -18
-44 -19 -44 -1 0 8 10 14 25 14 16 0 23 -5 19 -13z m-1897 -64 c-14 -13 -27 9
-15 24 12 15 13 14 16 -1 2 -10 1 -20 -1 -23z m1837 -528 c7 -275 6 -308 -9
-331 -12 -18 -16 -46 -15 -102 3 -165 0 -202 -13 -202 -10 0 -14 23 -15 93 -1
50 -5 186 -8 300 -5 188 -4 211 12 235 20 30 27 155 15 248 -7 50 -4 60 20 63
3 1 9 -136 13 -304z m-424 252 c0 -31 -14 -57 -32 -57 -10 0 -11 74 -1 83 17
18 33 5 33 -26z m-1655 -167 c-10 -32 -14 -83 -7 -94 8 -13 12 -47 10 -106 -1
-25 0 -80 1 -122 2 -70 0 -78 -16 -78 -17 0 -18 13 -18 203 0 111 4 208 8 215
12 18 29 4 22 -18z m1566 -146 c-6 -53 -44 -58 -47 -6 -1 21 4 32 15 35 28 8
36 1 32 -29z m-74 -242 c2 -18 -2 -32 -7 -32 -5 0 -15 -21 -22 -47 -6 -26 -14
-41 -16 -33 -3 8 -11 23 -19 32 -14 15 -13 19 1 33 9 9 16 32 16 51 0 29 3 33
22 30 17 -2 23 -11 25 -34z m-1132 -73 c-8 -11 -16 -11 -34 0 -22 14 -4 33 20
21 11 -6 17 -15 14 -21z m1444 -81 c0 -46 -4 -105 -8 -133 -5 -35 -7 -11 -7
82 1 73 4 133 9 133 4 0 7 -37 6 -82z m-402 -172 c-8 -20 -47 -21 -47 -1 0 8
5 15 10 15 6 0 10 8 10 17 0 16 1 16 16 1 9 -9 14 -24 11 -32z m-87 -306 c0
-11 -4 -20 -10 -20 -5 0 -10 9 -10 20 0 11 5 20 10 20 6 0 10 -9 10 -20z"/>
<path d="M246 4798 c-22 -12 -20 -31 4 -53 16 -15 44 -20 124 -25 104 -7 143
-21 163 -60 10 -20 16 -2462 5 -2520 l-8 -45 -64 -18 c-36 -9 -100 -20 -143
-24 -81 -6 -109 -22 -91 -50 8 -13 74 -15 526 -15 284 0 522 3 527 7 14 8 14
42 1 50 -5 3 -48 8 -95 9 -120 5 -200 36 -210 79 -4 18 -10 547 -12 1177 -4
1167 -1 1314 32 1350 8 9 15 21 15 27 0 17 29 24 120 29 123 8 160 27 145 74
-5 15 -46 17 -514 17 -280 0 -516 -4 -525 -9z"/>
<path d="M29088 4803 c61 -2 163 -2 225 0 61 1 11 3 -113 3 -124 0 -174 -2
-112 -3z"/>
<path d="M29488 4803 c18 -2 45 -2 60 0 15 2 0 4 -33 4 -33 0 -45 -2 -27 -4z"/>
<path d="M19808 4793 c-33 -8 -8 -63 28 -63 17 0 19 36 2 46 -8 5 -6 10 8 15
18 7 18 8 -1 7 -11 0 -28 -2 -37 -5z"/>
<path d="M20538 4793 c12 -2 30 -2 40 0 9 3 -1 5 -23 4 -22 0 -30 -2 -17 -4z"/>
<path d="M20815 4761 c0 -16 3 -27 8 -24 4 2 7 15 7 29 0 13 -3 24 -7 24 -5 0
-8 -13 -8 -29z"/>
<path d="M21622 4778 c-18 -18 -15 -36 8 -48 19 -10 20 -10 8 10 -11 18 -10
23 6 36 15 10 16 14 5 14 -8 0 -20 -5 -27 -12z"/>
<path d="M23414 4775 c-11 -27 1 -33 19 -9 16 21 16 24 2 24 -9 0 -18 -7 -21
-15z"/>
<path d="M27824 4776 c-7 -20 2 -46 16 -46 13 0 13 47 0 55 -6 3 -13 -1 -16
-9z"/>
<path d="M26518 4733 c12 -2 30 -2 40 0 9 3 -1 5 -23 4 -22 0 -30 -2 -17 -4z"/>
<path d="M30879 4727 c5 -5 21 -7 37 -5 27 3 26 4 -8 9 -22 3 -34 1 -29 -4z"/>
<path d="M27888 4723 c12 -2 30 -2 40 0 9 3 -1 5 -23 4 -22 0 -30 -2 -17 -4z"/>
<path d="M31173 4565 c0 -44 2 -61 4 -37 2 23 2 59 0 80 -2 20 -4 1 -4 -43z"/>
<path d="M20105 3910 c0 -377 1 -531 2 -342 2 188 2 496 0 685 -1 188 -2 34
-2 -343z"/>
<path d="M31603 4535 c0 -22 2 -30 4 -17 2 12 2 30 0 40 -3 9 -5 -1 -4 -23z"/>
<path d="M26693 4495 c0 -27 2 -38 4 -22 2 15 2 37 0 50 -2 12 -4 0 -4 -28z"/>
<path d="M22075 3945 c0 -231 1 -324 2 -207 2 117 2 306 0 420 -1 114 -2 18
-2 -213z"/>
<path d="M29913 4185 c0 -22 2 -30 4 -17 2 12 2 30 0 40 -3 9 -5 -1 -4 -23z"/>
<path d="M28928 3403 c17 -2 47 -2 65 0 17 2 3 4 -33 4 -36 0 -50 -2 -32 -4z"/>
<path d="M20104 2975 c0 -137 2 -195 3 -128 2 67 2 179 0 250 -1 70 -3 16 -3
-122z"/>
<path d="M20104 2410 c0 -91 2 -128 3 -82 2 45 2 119 0 165 -1 45 -3 8 -3 -83z"/>
<path d="M15660 2055 c19 -19 36 -35 39 -35 3 0 -10 16 -29 35 -19 19 -36 35
-39 35 -3 0 10 -16 29 -35z"/>
<path d="M29013 2083 c15 -2 37 -2 50 0 12 2 0 4 -28 4 -27 0 -38 -2 -22 -4z"/>
<path d="M28838 2073 c12 -2 32 -2 45 0 12 2 2 4 -23 4 -25 0 -35 -2 -22 -4z"/>
<path d="M20825 2016 c0 -26 3 -32 13 -24 6 6 12 14 12 17 0 4 -6 15 -12 24
-11 15 -13 13 -13 -17z"/>
<path d="M27825 2026 c-11 -8 -16 -19 -12 -30 9 -22 23 -13 29 19 6 29 7 29
-17 11z"/>
<path d="M19963 1983 c15 -2 37 -2 50 0 12 2 0 4 -28 4 -27 0 -38 -2 -22 -4z"/>
<path d="M20068 1983 c17 -2 47 -2 65 0 17 2 3 4 -33 4 -36 0 -50 -2 -32 -4z"/>
<path d="M20518 1983 c12 -2 30 -2 40 0 9 3 -1 5 -23 4 -22 0 -30 -2 -17 -4z"/>
<path d="M29648 1963 c17 -2 47 -2 65 0 17 2 3 4 -33 4 -36 0 -50 -2 -32 -4z"/>
<path d="M29793 1963 c15 -2 37 -2 50 0 12 2 0 4 -28 4 -27 0 -38 -2 -22 -4z"/>
<path d="M32458 1963 c67 -2 177 -2 245 0 67 1 12 3 -123 3 -135 0 -190 -2
-122 -3z"/>
<path d="M12052 728 c-9 -9 -12 -79 -12 -253 0 -265 0 -265 61 -265 63 0 64 5
61 264 -2 127 -5 239 -8 249 -6 20 -83 24 -102 5z m59 -175 c1 -112 -2 -207
-7 -212 -2 -2 -10 2 -19 9 -16 13 -23 258 -8 273 23 24 33 4 34 -70z"/>
<path d="M12388 729 c-16 -9 -18 -32 -18 -252 0 -268 0 -267 63 -267 63 0 67
10 67 174 0 80 2 146 5 146 8 0 67 -68 88 -101 27 -42 58 -38 102 14 21 23 42
52 48 65 21 45 27 19 27 -119 0 -77 5 -149 10 -160 16 -28 95 -27 110 2 12 21
7 480 -5 499 -8 13 -51 13 -78 -1 -26 -14 -98 -90 -134 -141 -34 -50 -46 -48
-87 15 -80 120 -142 159 -198 126z m79 -398 c10 -15 9 -22 -1 -30 -16 -13 -27
-4 -19 15 3 8 0 14 -6 14 -6 0 -11 5 -11 10 0 17 25 11 37 -9z"/>
<path d="M13127 733 c-9 -14 -11 -499 -3 -512 11 -17 91 -14 106 4 9 11 11 55
8 165 -2 83 -1 150 2 150 12 0 70 -63 70 -76 0 -15 58 -84 71 -84 4 0 24 24
43 54 53 84 119 134 102 78 -3 -10 -6 -75 -7 -146 -3 -149 6 -166 75 -158 58
7 60 17 53 275 -6 253 -7 257 -69 257 -45 0 -71 -22 -148 -128 -24 -34 -47
-61 -50 -60 -9 4 -123 133 -140 158 -16 24 -102 41 -113 23z m52 -143 c-1 -44
-5 -83 -10 -86 -10 -6 -12 149 -2 159 12 13 13 7 12 -73z m395 42 c2 -4 6 -45
7 -90 2 -53 8 -87 16 -94 16 -13 17 -100 1 -116 -22 -22 -34 -12 -37 31 -5 83
-9 112 -16 130 -4 9 -5 24 -2 32 4 8 2 17 -2 19 -7 5 -8 58 -2 89 1 9 28 9 35
-1z m-378 -298 c27 -40 -11 -94 -43 -61 -12 11 -12 30 -3 102 14 111 24 128
28 46 2 -35 10 -74 18 -87z"/>
<path d="M14022 730 c-18 -4 -41 -15 -51 -24 -10 -9 -23 -16 -29 -16 -7 0 -12
-7 -12 -15 0 -8 -6 -15 -12 -16 -20 0 -55 -50 -67 -94 -26 -93 -8 -202 42
-250 140 -135 333 -136 447 0 47 56 58 90 59 181 2 165 -183 280 -377 234z
m170 -109 c57 -24 79 -59 85 -135 8 -102 -55 -166 -162 -166 -57 1 -82 12
-119 56 -36 44 -38 159 -3 199 53 61 126 78 199 46z"/>
<path d="M14612 731 c-18 -11 -19 -486 -1 -507 19 -23 242 -11 310 17 36 14
89 90 89 127 0 38 -34 83 -93 123 -5 4 1 20 13 37 30 41 24 133 -12 168 -33
33 -267 60 -306 35z m208 -100 c16 -11 18 -77 2 -93 -5 -5 -29 -8 -53 -6 l-44
3 -3 53 -3 52 43 0 c24 0 50 -4 58 -9z m-144 -143 c-2 -79 -7 -143 -12 -143
-5 0 -10 64 -10 143 -2 113 1 142 12 142 10 0 12 -28 10 -142z m179 -73 c26
-25 31 -50 15 -75 -8 -13 -125 -32 -142 -23 -10 5 -11 107 -1 116 18 19 104 7
128 -18z m-137 -112 c2 -8 -5 -13 -17 -13 -12 0 -21 6 -21 16 0 18 31 15 38
-3z"/>
<path d="M15197 713 c-8 -41 -2 -475 6 -493 8 -17 82 -16 105 2 17 15 18 488
0 506 -7 7 -33 12 -59 12 -44 0 -48 -2 -52 -27z m87 -65 c8 -30 6 -297 -2
-323 -15 -45 -30 -61 -44 -47 -10 10 -13 55 -13 180 0 210 -2 202 46 211 4 0
9 -9 13 -21z"/>
<path d="M15549 723 c-11 -12 -15 -69 -17 -244 -5 -286 -20 -264 186 -265 162
-2 182 3 182 45 0 48 -24 58 -135 59 -55 1 -103 1 -107 1 -5 1 -8 90 -8 199 0
141 -3 201 -12 210 -18 18 -73 15 -89 -5z m49 -231 c1 -88 -1 -142 -7 -142 -6
0 -11 59 -13 145 -2 94 1 144 7 142 6 -2 11 -62 13 -145z"/>
<path d="M16077 733 c-13 -12 -8 -498 5 -511 17 -17 93 -15 108 3 11 13 12 67
10 467 0 29 -29 48 -74 48 -23 0 -46 -3 -49 -7z m90 -241 c-2 -191 -11 -232
-45 -198 -17 16 -19 320 -3 374 1 1 12 2 25 2 l24 0 -1 -178z"/>
<path d="M16412 728 c-19 -19 -17 -485 2 -504 18 -17 295 -20 327 -4 23 13 25
47 3 78 -14 20 -23 22 -115 22 l-99 0 0 60 0 60 96 0 c126 0 156 16 120 66
-12 16 -30 20 -113 24 l-98 5 -3 53 -3 52 105 0 c94 0 106 2 116 19 14 28 13
38 -10 61 -18 18 -33 20 -168 20 -102 0 -152 -4 -160 -12z m246 -38 c19 0 14
-18 -8 -25 -24 -8 -80 3 -80 15 0 11 30 19 55 14 11 -2 26 -4 33 -4z m-166
-91 c4 -19 6 -84 4 -145 -4 -106 -3 -112 20 -139 13 -16 24 -24 24 -20 0 5 5
4 12 -3 19 -19 -25 -60 -60 -54 -42 6 -58 36 -32 62 23 23 28 49 6 31 -21 -18
-24 3 -24 166 1 139 1 142 22 139 14 -2 23 -13 28 -37z"/>
<path d="M16956 718 c-8 -31 -6 -457 3 -488 5 -19 14 -25 41 -26 65 -4 70 9
70 188 l0 160 29 -24 c17 -13 40 -44 53 -70 13 -26 27 -48 31 -48 8 0 38 -32
111 -119 64 -76 114 -104 143 -79 14 11 20 478 7 512 -9 24 -80 22 -94 -3 -5
-11 -10 -81 -10 -155 0 -154 -6 -164 -59 -97 -17 21 -31 41 -31 44 0 2 -21 27
-46 53 -25 27 -63 73 -85 102 -43 56 -70 72 -123 72 -26 0 -35 -5 -40 -22z
m64 -68 c0 -5 9 -10 19 -10 28 0 23 -38 -8 -73 -23 -25 -26 -26 -32 -10 -10
23 -11 88 -2 96 10 10 23 8 23 -3z m6 -278 c9 -63 8 -79 -3 -91 -25 -25 -37 3
-36 84 3 124 22 127 39 7z"/>
<path d="M17682 727 c-16 -19 -16 -485 0 -504 15 -19 93 -16 109 3 9 11 12 51
10 150 -1 115 0 134 14 134 8 0 15 -3 15 -7 0 -20 98 -113 113 -108 8 4 39 40
69 81 l53 75 5 -165 c3 -90 9 -168 13 -172 11 -11 89 -5 105 8 21 18 16 477
-5 501 -43 47 -132 -6 -204 -122 -35 -58 -52 -63 -73 -23 -8 15 -41 55 -74 90
-64 69 -123 92 -150 59z m452 -131 c-3 -14 -10 -26 -15 -26 -10 0 -12 31 -3
55 10 26 26 1 18 -29z m-390 -82 c3 -9 3 -20 0 -25 -3 -6 0 -17 7 -25 7 -9 13
-48 13 -102 1 -82 0 -87 -21 -90 -33 -5 -47 31 -45 121 1 86 8 120 23 112 5
-3 6 1 3 9 -3 9 -2 16 4 16 5 0 13 -7 16 -16z"/>
<path d="M18560 718 c-11 -12 -29 -52 -40 -88 -11 -36 -35 -98 -55 -138 -19
-40 -35 -79 -35 -87 0 -7 -4 -17 -10 -20 -5 -3 -10 -15 -10 -26 0 -10 -4 -27
-10 -37 -26 -48 -42 -93 -36 -107 14 -37 119 -4 130 41 4 13 15 38 26 56 l19
33 90 -1 c100 -1 121 -11 121 -54 0 -41 52 -82 99 -78 35 3 36 5 35 40 -1 20
-11 57 -23 82 -11 25 -21 48 -21 50 0 3 -15 31 -34 63 -19 32 -41 81 -51 108
-21 62 -73 168 -89 177 -25 16 -85 8 -106 -14z m101 -208 l26 -80 -59 0 c-49
0 -58 3 -58 18 0 20 52 142 60 142 3 0 17 -36 31 -80z"/>
<path d="M19077 727 c-11 -30 -8 -489 4 -503 15 -19 83 -18 99 1 8 10 12 46
11 105 0 56 3 90 10 90 5 0 35 -26 65 -57 143 -149 145 -150 193 -156 45 -6
71 8 71 36 0 13 -87 97 -100 97 -5 0 -10 4 -10 10 0 5 -25 35 -55 67 -30 32
-55 65 -55 73 0 9 22 43 49 75 65 79 104 143 97 161 -3 9 -20 14 -47 14 -48 0
-98 -44 -167 -147 -19 -29 -39 -53 -43 -53 -5 0 -9 40 -9 88 0 55 -4 92 -12
100 -17 17 -94 16 -101 -1z m65 -244 c2 -87 0 -159 -4 -161 -5 -2 -8 -13 -8
-25 0 -16 -3 -18 -11 -10 -15 15 -18 341 -4 347 6 3 13 5 17 5 4 1 8 -70 10
-156z"/>
<path d="M19708 729 c-16 -9 -18 -32 -18 -255 l0 -244 26 -10 c38 -15 317 -13
332 2 7 7 12 26 12 43 0 49 -13 55 -131 55 l-108 0 -7 57 c-4 31 -4 119 -1
195 4 114 3 141 -10 153 -17 17 -70 19 -95 4z m33 -247 c-8 -12 -10 4 -11 64
0 44 3 84 8 88 11 12 14 -132 3 -152z"/>
<path d="M20242 728 c-18 -18 -17 -491 1 -506 14 -12 316 -11 335 1 20 13 15
75 -7 87 -11 5 -64 10 -119 10 l-99 0 0 60 0 60 97 0 c102 0 125 9 118 47 -5
29 -48 43 -136 43 l-82 0 2 53 3 52 107 5 c114 5 112 5 122 35 7 24 -1 38 -31
54 -30 16 -295 15 -311 -1z m243 -49 c4 -6 5 -13 2 -15 -8 -8 -77 7 -77 17 0
13 67 11 75 -2z"/>
<path d="M20788 728 c-16 -12 -18 -37 -18 -245 -1 -267 0 -273 63 -273 62 0
67 10 67 123 l0 99 28 -7 c34 -8 53 -28 84 -85 62 -114 78 -130 136 -130 66 0
66 30 0 128 -28 42 -60 90 -71 106 -18 27 -13 45 14 46 4 0 14 16 24 36 36 76
0 170 -73 192 -64 19 -234 26 -254 10z m75 -59 c-8 -8 -16 -8 -30 0 -16 9 -14
10 12 11 21 0 26 -3 18 -11z m142 -49 c18 -20 18 -21 -1 -58 -18 -33 -25 -37
-62 -40 l-42 -3 0 60 0 61 43 0 c31 0 49 -6 62 -20z m-188 -109 c-2 -10 -1
-25 4 -33 6 -10 4 -20 -6 -28 -13 -11 -15 -6 -15 34 0 27 5 46 11 46 6 0 9 -8
6 -19z"/>
<path d="M23828 573 c12 -2 30 -2 40 0 9 3 -1 5 -23 4 -22 0 -30 -2 -17 -4z"/>
</g>
<g transform="translate(0.000000,577.000000) scale(0.100000,-0.100000)"
fill="url(#gG)" stroke="none">
<path d="M17260 5569 c0 -6 -9 -8 -20 -4 -11 3 -25 3 -31 0 -5 -4 -35 -9 -65
-11 -31 -2 -61 -7 -67 -11 -7 -4 -20 -6 -29 -5 -10 2 -18 -1 -18 -6 0 -5 -11
-7 -25 -4 -14 2 -25 0 -25 -7 0 -5 -7 -8 -15 -5 -8 4 -15 1 -15 -6 0 -6 -4 -8
-10 -5 -5 3 -10 2 -10 -4 0 -6 -7 -8 -15 -5 -8 4 -15 1 -15 -5 0 -6 -3 -10 -7
-10 -20 3 -34 -2 -29 -10 3 -5 -10 -12 -29 -15 -19 -4 -35 -11 -35 -17 0 -6
-4 -7 -10 -4 -5 3 -10 1 -10 -5 0 -6 -4 -9 -10 -5 -5 3 -18 -3 -29 -14 -11
-11 -22 -17 -25 -13 -3 3 -6 0 -6 -7 0 -7 -4 -10 -9 -6 -6 3 -14 -3 -20 -12
-6 -10 -11 -14 -11 -10 0 11 -78 -43 -120 -84 -19 -18 -39 -33 -43 -34 -5 0
-14 -8 -21 -17 -7 -10 -15 -15 -18 -12 -8 7 -88 -86 -85 -100 1 -6 -4 -10 -10
-9 -7 2 -14 -2 -14 -7 -1 -6 -2 -14 -3 -19 0 -5 -13 -19 -29 -31 -15 -12 -25
-25 -22 -30 3 -4 -2 -11 -11 -14 -9 -4 -14 -9 -11 -12 2 -3 -6 -17 -19 -31
-13 -14 -21 -29 -19 -33 3 -4 -2 -11 -11 -14 -9 -4 -14 -9 -11 -13 4 -3 0 -11
-9 -17 -8 -6 -16 -21 -17 -34 0 -12 -5 -22 -10 -22 -4 0 -5 -4 -2 -10 3 -5 1
-10 -5 -10 -6 0 -9 -4 -5 -9 3 -5 1 -12 -5 -16 -6 -4 -8 -11 -5 -16 4 -5 2 -9
-4 -9 -10 0 -27 -38 -23 -52 1 -5 -3 -8 -10 -8 -6 0 -9 -3 -5 -6 3 -4 0 -19
-9 -35 -8 -16 -12 -29 -9 -29 4 0 -1 -7 -10 -17 -10 -9 -15 -26 -12 -40 2 -13
-1 -23 -7 -23 -13 0 -39 16 -35 21 1 2 -9 24 -22 49 -12 25 -22 49 -21 53 1 5
-7 20 -18 34 -11 14 -20 32 -20 39 0 7 -10 20 -22 29 -13 8 -22 18 -20 20 6
12 1 26 -8 20 -5 -3 -10 3 -10 14 0 11 -9 26 -20 34 -11 8 -17 17 -13 20 3 4
1 7 -6 7 -7 0 -10 4 -7 8 7 12 -52 82 -67 79 -7 -1 -11 4 -10 10 3 14 -20 38
-128 134 -92 82 -115 99 -123 92 -3 -3 -6 0 -6 7 0 7 -3 11 -6 7 -3 -3 -18 5
-32 19 -25 22 -31 25 -48 23 -4 0 -10 3 -13 8 -11 16 -92 54 -102 48 -5 -4 -9
-1 -9 5 0 7 -6 10 -12 8 -7 -3 -19 2 -27 9 -8 8 -22 12 -32 10 -11 -3 -19 -1
-19 5 0 5 -4 6 -10 3 -5 -3 -10 -1 -10 6 0 6 -8 9 -20 6 -11 -3 -23 -1 -26 5
-3 5 -15 8 -25 5 -10 -3 -22 -1 -25 5 -3 5 -12 7 -20 4 -8 -3 -14 -1 -14 4 0
5 -82 8 -195 7 -107 -1 -195 -5 -195 -9 0 -3 -9 -4 -20 -1 -11 3 -20 0 -20 -6
0 -5 -7 -8 -15 -5 -8 4 -21 1 -29 -5 -7 -6 -16 -8 -19 -4 -4 3 -7 2 -7 -3 0
-5 -10 -9 -22 -10 -27 -1 -122 -36 -126 -46 -2 -4 -9 -5 -16 -2 -7 3 -18 -2
-25 -10 -7 -8 -19 -12 -27 -9 -7 3 -17 -2 -20 -11 -3 -9 -12 -16 -20 -16 -8 0
-14 -5 -14 -10 0 -6 -3 -9 -7 -8 -13 4 -73 -32 -73 -43 0 -6 -4 -8 -9 -5 -10
6 -121 -83 -121 -97 0 -4 -4 -6 -10 -2 -5 3 -33 -19 -63 -48 -49 -50 -63 -68
-65 -90 -1 -4 -15 -19 -32 -33 -16 -14 -28 -29 -25 -34 3 -4 -2 -11 -11 -14
-8 -3 -13 -10 -10 -15 3 -5 -1 -12 -10 -15 -9 -4 -14 -9 -11 -12 3 -3 -3 -14
-14 -25 -11 -11 -17 -24 -14 -29 4 -6 2 -10 -4 -10 -10 0 -64 -103 -61 -116 1
-4 -3 -10 -9 -13 -6 -4 -12 -19 -13 -34 -1 -15 -6 -27 -11 -27 -5 0 -7 -7 -4
-15 4 -8 2 -17 -4 -21 -6 -3 -8 -13 -5 -21 3 -8 -1 -28 -9 -44 -9 -16 -13 -34
-10 -39 3 -6 1 -10 -5 -10 -7 0 -10 -7 -7 -15 4 -8 2 -17 -3 -20 -10 -6 -11
-413 -1 -430 3 -5 6 -12 6 -15 7 -44 30 -120 37 -120 5 0 6 -9 3 -20 -3 -11
-3 -20 2 -20 4 0 9 -10 9 -23 2 -29 64 -157 76 -157 5 0 7 -4 3 -9 -3 -5 2
-16 10 -25 9 -8 16 -19 17 -23 2 -19 22 -53 30 -53 5 0 7 -4 3 -9 -3 -5 3 -16
13 -23 11 -7 19 -16 18 -20 0 -3 13 -22 30 -42 17 -19 29 -37 27 -40 -6 -6
229 -253 282 -296 17 -13 18 -13 10 0 -5 8 13 -9 39 -38 26 -28 51 -50 56 -47
4 3 10 -1 13 -9 3 -8 32 -31 64 -52 32 -21 72 -51 88 -65 45 -40 186 -142 220
-159 17 -8 35 -22 42 -30 7 -8 13 -11 13 -6 0 6 7 1 15 -10 8 -10 15 -15 15
-10 0 5 9 -3 21 -18 11 -14 25 -26 31 -26 6 0 25 -10 42 -23 29 -22 49 -33 69
-36 4 0 16 -10 27 -21 12 -12 25 -18 29 -15 5 2 12 -2 15 -11 3 -8 10 -13 15
-10 5 3 12 -1 15 -10 3 -8 10 -13 15 -10 5 3 12 -1 15 -10 3 -8 10 -13 15 -10
5 3 12 -1 15 -10 3 -8 10 -13 15 -10 5 3 12 -1 15 -10 4 -9 9 -14 13 -10 4 3
19 -6 35 -21 15 -15 28 -24 28 -20 0 3 11 -5 25 -19 14 -14 29 -23 34 -20 5 3
12 -1 15 -10 3 -8 10 -13 15 -10 5 3 11 -1 15 -9 3 -8 12 -15 21 -15 8 0 15
-5 15 -12 0 -6 3 -8 7 -5 3 4 13 -2 20 -13 8 -11 18 -18 23 -15 5 3 11 -3 15
-12 3 -10 31 -38 62 -62 31 -25 54 -40 50 -35 -3 6 49 -44 116 -110 67 -67
121 -123 120 -125 -5 -8 60 -90 75 -96 9 -3 22 1 30 9 20 20 -1 117 -35 163
-12 17 -23 34 -23 37 0 19 -126 182 -185 239 -74 73 -150 132 -169 132 -6 1
-10 6 -9 11 2 13 -15 27 -157 135 -145 110 -190 141 -190 132 0 -4 -7 3 -16
15 -8 12 -20 20 -25 17 -5 -4 -9 -1 -9 5 0 6 -4 8 -10 5 -5 -3 -10 -2 -10 3 0
5 -17 22 -37 38 -20 15 -33 21 -28 13 5 -8 -6 1 -24 19 -33 32 -121 97 -121
88 0 -2 -17 11 -37 30 -36 32 -211 164 -218 164 -2 0 -18 13 -36 29 -18 17
-35 29 -38 29 -3 -1 -30 22 -59 51 -29 28 -57 49 -62 46 -6 -3 -10 -1 -10 5 0
15 -46 71 -52 64 -3 -2 -11 3 -19 13 -12 15 -12 16 1 8 8 -5 4 5 -10 22 -14
17 -35 37 -47 43 -12 7 -19 18 -17 24 3 7 -7 18 -20 26 -14 7 -23 17 -20 21 2
4 -5 14 -16 22 -11 7 -17 17 -14 20 4 4 -1 9 -10 13 -9 3 -13 10 -10 15 3 5 1
9 -4 9 -6 0 -15 14 -21 30 -5 17 -17 33 -25 36 -8 3 -12 12 -9 20 3 8 0 14 -7
14 -6 0 -8 5 -5 10 3 6 2 10 -2 10 -5 0 -9 10 -10 21 -1 12 -8 29 -16 38 -8 9
-12 22 -10 29 3 6 -1 12 -8 12 -7 0 -10 3 -6 6 3 4 -5 26 -18 49 -13 24 -21
46 -18 49 4 3 1 6 -5 6 -6 0 -9 7 -6 15 3 8 2 20 -2 27 -5 7 -7 23 -5 36 1 12
-1 22 -6 22 -10 0 -11 22 -11 185 1 176 2 195 12 195 4 0 6 9 3 20 -3 11 -1
20 4 20 6 0 9 6 7 13 -1 6 9 35 22 62 13 28 24 52 24 55 5 20 71 146 78 148 4
2 8 10 8 17 0 7 16 25 35 39 20 15 33 32 30 37 -4 5 -2 9 3 9 5 0 42 32 81 70
40 39 77 70 82 70 5 0 9 5 9 10 0 6 3 9 8 8 8 -3 86 43 90 54 2 4 10 4 18 1 7
-3 16 1 19 9 3 8 15 15 27 15 12 1 24 6 27 10 3 4 17 10 31 12 14 1 39 10 55
19 17 8 41 17 55 18 14 2 26 7 27 11 2 4 37 7 79 5 46 -2 81 1 87 7 6 6 45 11
86 10 54 0 70 -3 56 -9 -14 -7 1 -9 50 -9 39 1 83 -4 99 -10 16 -7 35 -10 42
-7 8 3 16 1 19 -5 4 -5 11 -7 16 -4 5 4 9 2 9 -3 0 -13 87 -45 100 -37 5 3 10
1 10 -5 0 -6 5 -8 10 -5 6 3 10 1 10 -5 0 -6 5 -8 10 -5 6 3 10 1 10 -4 0 -6
6 -11 14 -11 7 0 19 -7 26 -15 7 -8 16 -13 20 -10 4 3 11 -2 14 -11 3 -8 10
-12 16 -9 5 3 10 1 10 -5 0 -6 5 -8 10 -5 6 3 10 1 10 -6 0 -7 3 -10 6 -6 3 3
22 -10 42 -29 20 -19 40 -34 45 -34 4 0 20 -13 34 -30 13 -16 31 -30 39 -30 9
0 13 -4 10 -9 -3 -5 14 -27 38 -49 24 -22 42 -42 40 -45 -2 -2 11 -20 30 -40
19 -20 31 -37 27 -37 -3 0 1 -6 9 -13 8 -7 16 -18 18 -26 1 -7 14 -28 27 -46
14 -17 25 -35 25 -39 0 -5 9 -20 20 -36 11 -15 17 -30 13 -34 -3 -3 -1 -6 6
-6 7 0 9 -4 6 -10 -3 -5 -1 -10 5 -10 6 0 9 -4 5 -9 -3 -5 -1 -12 5 -16 6 -4
8 -11 5 -16 -7 -10 25 -69 37 -69 4 0 5 -6 2 -14 -6 -15 21 -46 40 -46 16 0
61 48 53 57 -4 3 -2 12 4 19 6 8 9 20 6 28 -3 8 0 20 8 26 12 10 28 56 30 85
0 6 4 16 8 23 5 6 5 12 1 12 -4 0 1 9 11 20 10 11 15 20 12 20 -3 0 0 12 8 27
8 15 12 30 9 35 -3 4 0 8 6 8 6 0 8 5 5 10 -3 6 -2 10 3 10 10 0 48 70 44 83
-1 4 3 7 9 7 5 0 8 4 5 9 -3 5 1 12 10 15 8 3 12 10 9 16 -3 5 -1 10 5 10 6 0
8 5 5 10 -3 6 -2 10 3 10 10 0 69 84 61 87 -2 1 5 9 16 17 11 8 20 18 20 23 0
11 89 103 101 104 5 0 26 20 46 45 21 24 41 45 45 46 4 0 35 19 68 42 83 57
97 66 118 72 9 4 17 10 17 15 0 5 7 6 15 3 8 -4 15 -1 15 5 0 6 3 10 8 9 14
-4 52 13 52 23 0 6 4 8 8 5 4 -3 39 7 78 21 38 14 88 24 112 23 23 0 42 4 42
10 0 14 217 14 225 -1 4 -6 24 -9 44 -8 20 2 42 0 49 -5 7 -4 17 -4 22 -1 6 3
10 1 10 -5 0 -6 4 -9 9 -6 5 4 11 1 13 -4 2 -6 13 -12 26 -13 12 0 22 -5 22
-9 0 -4 6 -5 14 -2 7 3 16 -2 20 -11 3 -9 10 -13 16 -10 5 3 10 2 10 -3 0 -9
41 -28 63 -30 5 0 15 -9 23 -19 7 -10 14 -13 14 -8 0 6 4 5 8 -2 4 -6 35 -33
69 -61 34 -27 60 -52 57 -55 -3 -2 6 -13 19 -23 13 -11 24 -23 24 -29 1 -5 10
-12 20 -16 10 -4 15 -8 11 -8 -11 -1 32 -81 44 -81 5 0 6 -4 3 -10 -3 -5 -1
-10 5 -10 6 0 9 -4 6 -8 -3 -5 8 -34 23 -65 15 -31 26 -59 23 -62 -3 -3 0 -5
7 -5 7 0 9 -4 6 -10 -3 -5 -2 -10 3 -10 9 0 11 -12 13 -62 0 -16 4 -28 8 -28
3 0 8 -10 9 -22 4 -56 2 -390 -3 -399 -5 -8 -15 -56 -17 -86 -1 -7 -6 -13 -11
-13 -6 0 -8 -3 -4 -6 3 -4 -1 -13 -9 -22 -9 -8 -13 -23 -11 -33 3 -11 1 -19
-5 -19 -5 0 -7 -4 -4 -9 3 -5 -1 -14 -8 -21 -14 -11 -32 -66 -28 -82 1 -5 -2
-8 -6 -8 -5 0 -15 -18 -22 -40 -7 -22 -17 -40 -22 -40 -5 0 -6 -4 -3 -10 3 -5
1 -10 -5 -10 -6 0 -8 -4 -5 -10 3 -5 1 -10 -5 -10 -6 0 -8 -4 -5 -10 3 -5 1
-10 -5 -10 -6 0 -8 -4 -5 -10 3 -5 1 -10 -5 -10 -6 0 -17 -15 -25 -34 -8 -19
-19 -38 -25 -41 -6 -4 -8 -10 -5 -15 3 -4 -2 -11 -11 -14 -9 -4 -14 -9 -11
-12 3 -3 -3 -14 -14 -25 -11 -11 -17 -24 -14 -28 2 -5 -2 -12 -11 -15 -8 -3
-13 -10 -9 -15 3 -5 -3 -12 -13 -15 -18 -6 -48 -52 -44 -68 1 -5 -3 -8 -10 -8
-6 0 -9 -3 -5 -6 8 -8 -16 -33 -25 -27 -5 2 -8 0 -8 -6 0 -5 -12 -24 -27 -42
-16 -18 -23 -30 -17 -26 7 4 -17 -23 -52 -60 -35 -36 -61 -70 -58 -74 2 -4 -9
-17 -26 -29 -17 -12 -28 -25 -25 -29 2 -5 -6 -14 -18 -21 -12 -7 -47 -41 -77
-76 -30 -36 -61 -70 -68 -77 -69 -63 -232 -231 -232 -238 0 -5 -4 -8 -9 -7 -5
2 -25 -14 -44 -34 -19 -21 -32 -38 -28 -38 3 0 -8 -9 -26 -20 -18 -10 -39 -33
-48 -50 -8 -16 -21 -30 -28 -30 -16 0 -207 -193 -207 -209 0 -6 -4 -10 -9 -8
-5 1 -25 -16 -45 -38 -21 -22 -44 -47 -53 -55 -63 -58 -186 -198 -163 -186 8
5 -1 -5 -20 -22 -19 -17 -32 -31 -28 -32 4 0 -9 -16 -28 -36 -20 -19 -34 -37
-31 -40 2 -2 -11 -21 -29 -41 -18 -20 -31 -39 -29 -44 3 -4 -2 -9 -10 -13 -14
-5 -50 -73 -47 -88 1 -5 -3 -8 -10 -8 -6 0 -9 -3 -5 -6 3 -3 -3 -14 -14 -25
-11 -11 -17 -24 -14 -28 2 -5 -2 -12 -11 -15 -8 -3 -12 -10 -9 -16 3 -5 2 -10
-3 -10 -12 0 -34 -49 -27 -61 4 -5 1 -9 -5 -9 -7 0 -10 -6 -8 -12 3 -7 -2 -19
-9 -26 -8 -8 -11 -23 -8 -33 4 -11 2 -19 -5 -19 -7 0 -10 -7 -6 -15 3 -8 1
-15 -5 -15 -6 0 -9 -6 -6 -14 3 -8 2 -16 -3 -18 -4 -2 -9 -16 -11 -33 -2 -16
-7 -35 -11 -41 -18 -25 -21 -109 -4 -123 27 -22 99 40 81 69 -3 6 -1 10 5 10
6 0 9 4 6 9 -3 5 1 12 10 15 9 4 14 9 11 12 -3 4 3 16 14 28 11 11 48 62 81
111 100 148 153 211 337 399 58 59 99 105 91 100 -13 -7 -13 -5 -1 9 7 9 17
15 21 12 4 -2 33 22 63 54 31 32 59 56 62 53 3 -3 5 3 5 13 0 10 3 16 6 12 3
-3 35 18 69 48 77 65 107 95 98 95 -5 1 2 7 15 14 13 7 56 42 95 78 40 36 105
94 145 128 40 33 70 65 67 71 -4 5 -1 9 4 9 6 0 37 24 69 53 84 75 111 97 121
97 5 0 12 11 15 25 4 14 10 24 15 21 4 -3 40 28 79 68 39 40 74 71 77 68 3 -3
5 2 5 11 0 10 3 16 8 15 11 -3 142 133 139 145 -1 6 3 11 8 12 6 0 28 20 50
45 22 25 43 47 48 48 4 2 7 10 7 18 0 8 6 17 14 20 13 5 77 85 80 100 0 4 15
23 33 42 18 19 30 38 28 43 -3 4 1 9 9 12 17 7 79 97 72 105 -3 3 3 12 14 19
20 14 56 73 45 73 -4 0 1 7 9 16 9 8 14 20 11 25 -4 5 -1 9 5 9 7 0 10 7 6 15
-3 8 3 20 13 27 25 18 54 65 47 77 -3 5 -1 11 5 13 6 2 12 16 12 31 1 15 6 27
10 27 5 0 5 5 2 10 -3 6 -1 10 5 10 7 0 10 7 6 15 -3 8 -2 15 2 15 11 0 54 99
47 110 -3 6 -1 10 6 10 6 0 9 8 6 20 -3 11 -1 23 5 26 5 3 7 17 4 30 -4 15 -2
24 5 24 7 0 9 9 5 24 -3 12 -3 26 0 29 22 22 21 405 0 487 -8 30 -16 78 -17
103 0 9 -4 17 -10 17 -5 0 -8 3 -8 8 1 4 1 9 -1 12 -1 3 -4 16 -6 30 -2 13 -9
27 -15 31 -6 3 -11 9 -11 12 0 19 -12 47 -20 47 -5 0 -6 5 -3 10 3 6 1 10 -4
10 -6 0 -10 3 -9 8 4 14 -21 72 -32 72 -6 0 -9 4 -6 8 5 9 -48 92 -66 103 -6
4 -13 15 -14 24 -3 18 -165 187 -173 180 -2 -2 -12 6 -22 18 -10 12 -18 18
-19 13 0 -5 -9 3 -20 17 -19 24 -107 74 -122 69 -5 -1 -8 2 -8 7 0 8 -37 24
-52 22 -5 -1 -8 4 -8 10 0 5 -4 7 -10 4 -5 -3 -10 -1 -10 5 0 7 -7 10 -15 6
-8 -3 -15 -1 -15 5 0 6 -4 7 -10 4 -5 -3 -10 -1 -10 5 0 7 -7 10 -15 6 -8 -3
-15 -1 -15 5 0 6 -8 9 -17 7 -10 -1 -23 1 -30 5 -7 4 -32 9 -56 11 -25 2 -49
6 -55 10 -10 6 -25 7 -89 7 -18 0 -35 4 -38 9 -9 14 -155 13 -155 -1z"/>
<path d="M26615 4850 c-11 -12 -16 -29 -13 -45 3 -14 1 -28 -4 -31 -4 -3 -6
-9 -4 -13 10 -16 -42 -34 -76 -27 -18 4 -43 7 -55 8 -13 0 -23 5 -23 10 0 6
-9 8 -20 5 -11 -3 -20 -1 -20 5 0 6 -7 8 -15 5 -8 -4 -17 -2 -21 4 -3 6 -12 8
-19 5 -8 -3 -15 0 -17 5 -2 6 -21 12 -41 14 -21 2 -44 9 -52 15 -8 6 -22 10
-32 9 -10 -2 -28 2 -40 9 -13 7 -23 10 -23 7 0 -3 -10 1 -22 9 -36 26 -227 19
-211 -7 4 -6 -3 -8 -21 -3 -14 3 -26 3 -26 -2 0 -9 -17 -12 -62 -12 -16 0 -28
-4 -28 -10 0 -5 -6 -7 -14 -4 -8 3 -25 0 -38 -7 -13 -7 -26 -12 -31 -11 -4 1
-25 -9 -47 -23 -22 -14 -42 -25 -45 -25 -14 0 -85 -65 -85 -77 0 -8 -3 -12 -7
-10 -5 3 -26 -13 -48 -35 -22 -23 -33 -37 -25 -33 8 4 0 -5 -18 -20 -18 -15
-30 -30 -27 -35 3 -4 -2 -11 -11 -14 -8 -3 -13 -10 -10 -15 3 -4 -3 -16 -14
-26 -11 -10 -17 -22 -14 -26 3 -5 0 -9 -7 -9 -7 0 -9 -3 -6 -6 4 -4 0 -19 -8
-33 -17 -32 -44 -111 -44 -131 0 -18 -9 -75 -12 -75 -5 0 -11 -85 -11 -140 1
-116 2 -124 12 -130 6 -4 8 -11 5 -16 -4 -5 -3 -14 1 -21 4 -6 8 -25 10 -42 1
-17 7 -32 13 -34 6 -2 9 -8 5 -13 -3 -5 0 -9 6 -9 6 0 8 -4 5 -10 -3 -5 -1
-10 5 -10 6 0 9 -4 5 -9 -3 -5 -1 -12 5 -16 6 -4 8 -10 6 -14 -3 -4 3 -17 14
-28 10 -12 16 -24 13 -27 -4 -3 -1 -6 6 -6 7 0 10 -4 6 -9 -3 -5 10 -22 30
-36 19 -15 32 -31 29 -36 -3 -5 3 -12 13 -16 10 -3 35 -25 55 -47 21 -23 38
-38 38 -34 0 4 14 -6 32 -22 17 -16 34 -27 37 -25 2 3 11 -4 18 -15 8 -11 18
-18 23 -15 4 3 11 -2 14 -11 3 -8 10 -12 16 -9 5 3 10 1 10 -5 0 -6 4 -9 9 -6
5 3 11 -1 15 -9 3 -8 15 -15 26 -15 12 0 18 -5 15 -10 -7 -11 35 -31 48 -23 4
2 7 -1 7 -7 0 -6 4 -9 9 -6 5 3 12 -1 15 -10 3 -8 10 -12 16 -9 5 3 10 1 10
-5 0 -6 5 -8 10 -5 6 3 10 1 10 -6 0 -7 3 -9 7 -6 3 4 11 0 17 -9 6 -8 21 -16
34 -17 12 0 22 -5 22 -10 0 -4 4 -6 9 -3 5 3 12 -1 15 -10 4 -9 9 -14 12 -11
4 3 11 1 18 -4 59 -49 69 -55 99 -50 4 0 7 -4 7 -10 0 -5 4 -8 9 -5 5 3 12 -1
15 -10 3 -8 10 -13 15 -10 5 3 12 -1 15 -10 4 -9 9 -14 12 -11 3 3 16 -4 28
-16 11 -12 33 -29 49 -36 15 -8 27 -19 28 -25 0 -6 33 -40 74 -76 40 -36 70
-68 68 -72 -2 -5 1 -8 7 -8 6 0 9 -4 6 -9 -7 -10 25 -71 36 -71 4 0 5 -7 2
-15 -4 -8 -1 -15 5 -15 6 0 8 -7 5 -15 -4 -8 -1 -15 5 -15 6 0 8 -7 5 -15 -4
-8 -3 -23 1 -32 5 -10 9 -22 10 -28 1 -5 3 -14 4 -20 8 -37 1 -208 -9 -220 -7
-8 -10 -28 -8 -45 3 -16 0 -30 -5 -30 -5 0 -7 -7 -3 -15 3 -8 1 -15 -5 -15 -5
0 -9 -6 -8 -12 4 -22 -19 -65 -37 -72 -9 -4 -14 -9 -11 -12 3 -3 -18 -26 -46
-52 -29 -25 -53 -51 -55 -58 -2 -7 -9 -11 -16 -8 -7 3 -23 -6 -37 -18 -14 -13
-32 -22 -42 -20 -9 2 -17 -2 -17 -8 0 -6 -4 -9 -9 -6 -5 4 -22 1 -38 -5 -30
-13 -268 -19 -249 -7 6 4 -11 8 -37 8 -27 0 -57 5 -67 10 -10 6 -30 11 -44 12
-15 1 -26 5 -26 9 0 4 -26 22 -57 39 -32 18 -82 58 -112 89 -30 31 -52 50 -47
44 4 -7 5 -13 2 -13 -6 0 -29 42 -70 128 -14 28 -30 52 -35 52 -6 0 -8 7 -5
15 4 8 1 15 -7 15 -7 0 -10 3 -6 6 7 8 -13 64 -24 64 -4 0 -6 7 -3 15 4 8 1
15 -5 15 -6 0 -8 7 -5 15 4 8 2 15 -3 15 -5 0 -7 19 -5 41 3 29 1 39 -7 35 -7
-5 -9 2 -5 22 3 17 1 32 -5 36 -5 4 -8 13 -4 21 3 8 0 15 -7 15 -8 0 -10 9 -6
24 4 15 1 30 -7 38 -7 7 -15 18 -18 23 -2 6 -7 9 -11 7 -5 -1 -8 2 -8 8 0 5
-7 6 -17 3 -11 -4 -14 -3 -9 5 5 8 2 10 -9 6 -8 -4 -20 -15 -26 -26 -11 -21
-13 -582 -3 -625 4 -15 2 -23 -6 -23 -9 0 -11 -11 -6 -40 4 -25 2 -40 -4 -40
-12 0 -14 -149 -2 -165 4 -5 24 -10 45 -11 33 0 42 6 38 28 0 5 4 8 10 8 6 0
9 10 7 23 -1 12 8 39 20 59 27 44 62 52 110 24 18 -10 35 -16 39 -13 3 3 12
-1 20 -9 9 -8 20 -13 27 -11 6 2 17 -3 25 -10 7 -8 20 -12 27 -9 8 3 14 0 14
-5 0 -6 8 -9 18 -7 10 3 24 -2 31 -9 8 -8 24 -13 37 -10 13 2 24 0 24 -5 0 -6
7 -8 15 -4 8 3 15 0 15 -5 0 -6 9 -9 20 -6 11 3 34 -1 50 -10 16 -8 34 -12 40
-8 5 3 10 1 10 -6 0 -7 10 -9 25 -7 14 3 28 1 31 -3 7 -12 231 -12 238 0 3 5
15 7 26 4 11 -3 20 0 20 6 0 5 7 8 15 5 8 -4 15 -1 15 5 0 6 7 8 15 5 8 -4 15
-1 15 5 0 7 9 9 25 5 15 -4 25 -2 25 5 0 6 6 8 14 5 15 -6 136 41 151 59 6 7
17 13 25 15 8 2 23 12 33 24 9 11 17 17 17 13 0 -10 82 51 132 98 51 49 116
128 120 148 2 8 11 20 21 28 10 7 16 19 13 27 -3 8 -1 14 5 14 6 0 7 5 4 10
-3 6 -2 10 3 10 11 0 35 60 27 68 -3 3 2 13 11 23 9 10 14 25 11 34 -4 8 -3
15 2 15 4 0 8 6 9 13 11 86 16 141 15 187 -1 30 -2 76 -2 102 -1 26 -5 49 -10
52 -5 4 -7 15 -4 26 3 12 0 20 -6 20 -7 0 -10 4 -7 9 7 11 -33 113 -50 127 -8
6 -11 14 -7 17 3 4 1 7 -6 7 -7 0 -10 4 -7 9 7 11 -45 84 -76 105 -12 9 -19
16 -14 16 5 0 3 7 -4 15 -7 8 -15 13 -19 11 -6 -4 -24 12 -32 29 -6 16 -65 65
-77 65 -6 0 -14 9 -17 20 -3 11 -10 20 -14 20 -5 0 -25 11 -45 25 -20 13 -36
21 -36 17 0 -4 -5 1 -11 11 -6 9 -14 15 -20 12 -5 -4 -9 -2 -9 3 0 4 -18 18
-40 31 -22 12 -40 20 -40 16 0 -3 -10 4 -22 16 -23 21 -67 44 -80 41 -5 -1 -8
3 -8 8 0 6 -11 15 -25 20 -14 6 -37 15 -52 22 -16 6 -31 11 -35 10 -5 -1 -8 3
-8 8 0 6 -7 10 -15 10 -8 0 -15 4 -15 9 0 10 -150 87 -162 84 -5 -2 -8 1 -8 6
0 11 -97 78 -120 83 -8 2 -22 14 -31 28 -9 14 -33 43 -53 65 -21 22 -37 41
-36 43 4 6 -26 62 -33 62 -5 0 -6 4 -3 9 3 5 -1 14 -9 21 -8 7 -12 16 -9 21 3
5 2 14 -2 21 -26 41 -21 287 7 353 7 17 12 33 11 38 -1 4 3 7 8 7 6 0 10 5 10
10 0 6 16 33 35 60 19 27 35 53 35 57 0 5 3 8 8 8 16 1 93 47 98 58 2 7 14 14
27 14 12 1 23 6 25 11 1 5 14 7 27 4 14 -2 25 0 25 4 0 14 203 11 218 -3 7 -7
20 -13 29 -13 8 0 29 -10 46 -22 17 -12 27 -16 22 -7 -5 7 3 3 17 -10 14 -13
28 -23 32 -22 4 1 16 -8 27 -21 11 -13 17 -17 13 -9 -3 7 20 -13 52 -45 33
-33 58 -62 56 -67 -2 -4 4 -10 12 -13 9 -3 14 -10 11 -14 -2 -4 6 -19 19 -33
13 -14 21 -28 18 -31 -3 -3 0 -6 6 -6 7 0 11 -3 10 -7 -3 -14 31 -83 41 -83 6
0 8 -6 5 -13 -3 -8 1 -27 7 -43 7 -16 11 -39 10 -51 -1 -13 2 -23 7 -23 6 0 8
-9 5 -20 -3 -12 0 -20 6 -20 7 0 9 -5 6 -11 -13 -21 23 -46 63 -43 20 1 36 7
35 13 -2 6 2 11 7 11 6 0 10 29 10 66 0 47 -3 63 -12 58 -8 -5 -9 0 -5 17 4
13 -1 69 -9 124 -13 79 -14 114 -5 170 5 38 10 86 10 105 0 19 3 63 7 98 5 52
4 66 -11 82 -23 26 -67 26 -90 0z"/>
<path d="M29590 4809 c-29 -7 -889 -13 -1045 -7 -95 4 -630 3 -667 -1 -35 -4
-36 -5 -31 -39 5 -27 3 -34 -8 -30 -8 3 -14 17 -14 31 1 15 -3 27 -7 27 -13 0
-9 -48 4 -56 7 -5 51 -10 98 -12 47 -2 96 -4 110 -5 14 -1 37 -13 52 -27 l27
-25 2 -1275 c2 -956 0 -1280 -9 -1295 -6 -11 -12 -16 -12 -11 0 6 -6 1 -14 -9
-11 -15 -24 -18 -65 -16 -28 1 -51 -2 -51 -7 0 -6 -17 -8 -40 -5 -21 3 -47 2
-57 -2 -10 -5 -20 -8 -23 -7 -3 0 -6 -9 -5 -21 0 -12 -4 -23 -10 -24 -5 -1
-10 6 -9 17 0 10 -3 17 -8 14 -4 -3 -8 -13 -8 -23 0 -43 8 -43 1094 -39 685 2
1037 0 1040 -7 2 -6 10 -6 22 1 17 10 19 26 19 183 0 94 4 171 9 171 5 0 6 36
4 80 -3 46 -1 80 5 80 5 0 7 23 5 50 -1 28 0 50 5 50 4 0 7 16 7 35 0 19 -5
35 -10 35 -6 0 -8 11 -4 25 4 18 1 27 -10 31 -9 3 -14 10 -11 14 9 14 -23 32
-45 25 -24 -8 -44 -41 -36 -62 4 -9 1 -22 -5 -29 -6 -8 -9 -27 -7 -44 3 -16 0
-30 -5 -30 -5 0 -7 -17 -4 -39 3 -22 2 -42 -1 -45 -11 -12 -41 -109 -36 -117
3 -5 0 -9 -6 -9 -7 0 -10 -7 -6 -15 3 -8 2 -15 -3 -15 -8 0 -44 -74 -45 -95
-1 -5 -6 -10 -12 -10 -7 0 -37 -22 -67 -50 -38 -35 -65 -51 -88 -53 -19 -2
-39 -8 -45 -13 -6 -5 -14 -6 -17 -3 -3 4 -14 3 -24 0 -18 -7 -357 -17 -536
-16 -60 1 -96 -3 -93 -9 4 -6 -53 -8 -151 -5 -104 3 -151 1 -138 -5 18 -9 17
-10 -9 -10 -16 -1 -26 2 -23 6 4 3 0 11 -8 17 -23 17 -27 1304 -5 1311 17 5
459 8 508 3 17 -2 32 -6 32 -9 0 -4 11 -10 25 -13 24 -6 116 -91 108 -100 -8
-7 26 -76 37 -76 8 0 9 -10 5 -30 -4 -18 -3 -30 4 -30 6 0 8 -6 5 -13 -3 -8 2
-34 11 -58 9 -24 18 -66 20 -94 6 -74 8 -85 18 -85 4 0 6 -4 2 -9 -7 -13 34
-51 56 -51 9 0 19 6 22 14 3 8 6 282 6 609 1 518 -1 596 -14 607 -11 9 -18 10
-28 1 -8 -6 -17 -8 -20 -4 -4 3 -7 1 -7 -6 0 -7 -4 -10 -9 -6 -13 7 -22 -25
-26 -88 -2 -29 -6 -59 -9 -67 -3 -8 -7 -24 -9 -35 -1 -11 -6 -26 -11 -33 -4
-7 -5 -16 -2 -19 3 -3 1 -11 -4 -18 -5 -6 -11 -27 -12 -46 -2 -19 -9 -40 -15
-47 -7 -7 -13 -19 -13 -26 0 -18 -73 -83 -88 -78 -7 2 -11 -2 -10 -10 2 -7 -3
-12 -9 -11 -7 2 -13 -2 -13 -8 0 -5 -4 -8 -9 -5 -4 3 -23 1 -42 -5 -19 -6 -68
-13 -109 -14 -41 -2 -111 -6 -155 -10 -89 -7 -209 -8 -240 -1 -20 5 -20 13
-20 566 0 308 3 560 8 560 4 0 7 6 7 14 0 9 14 15 43 17 62 6 651 -8 727 -17
36 -4 80 -7 98 -8 17 0 32 -5 32 -10 0 -4 8 -6 19 -3 10 2 29 -4 42 -14 13
-10 28 -19 33 -19 9 0 99 -80 90 -80 -3 0 4 -12 15 -26 12 -15 21 -33 21 -40
0 -7 7 -17 16 -22 9 -5 15 -12 15 -15 -4 -29 2 -50 18 -66 11 -11 17 -22 14
-25 -4 -3 -1 -6 6 -6 7 0 10 -4 7 -9 -4 -5 -1 -22 5 -38 7 -15 11 -38 10 -50
-1 -13 2 -23 8 -23 6 0 8 -6 5 -13 -3 -8 1 -27 7 -43 7 -16 11 -33 10 -38 -1
-4 10 -24 25 -43 29 -38 80 -45 78 -10 -1 9 2 17 6 17 10 0 6 222 -4 238 -3 6
-9 59 -11 119 -3 59 -7 131 -10 158 -2 28 -4 60 -5 73 0 12 -4 22 -8 22 -4 0
-8 10 -8 23 -4 61 -10 93 -19 99 -14 10 -212 8 -255 -3z"/>
<path d="M10905 4801 c-3 -6 -17 -11 -31 -11 -13 0 -24 -4 -24 -10 0 -5 8 -10
18 -10 20 1 58 27 50 36 -3 3 -9 1 -13 -5z"/>
<path d="M19852 4795 c-15 -8 -20 -15 -13 -19 21 -13 13 -49 -9 -43 -12 3 -18
1 -14 -5 4 -6 26 -8 50 -5 24 2 69 -1 101 -9 31 -7 60 -11 65 -8 4 3 8 1 8 -5
0 -5 13 -18 29 -27 17 -10 28 -21 25 -26 -3 -4 0 -8 5 -8 13 0 14 -2467 1
-2475 -4 -3 -11 -16 -14 -30 -5 -21 -46 -75 -46 -61 0 2 -17 0 -37 -6 -21 -5
-72 -9 -113 -8 -106 2 -145 -42 -77 -84 13 -8 20 -7 28 4 8 11 12 12 16 3 6
-15 83 -18 83 -3 0 6 21 10 46 10 27 0 43 -4 39 -10 -4 -6 10 -9 37 -9 l43 2
-35 6 c-19 3 121 6 313 5 191 0 350 -4 354 -7 11 -11 83 -8 83 4 0 5 4 8 9 4
5 -3 13 0 17 6 4 8 3 9 -4 5 -8 -5 -12 1 -12 16 0 45 -13 52 -85 44 -45 -5
-72 -3 -81 5 -8 6 -21 9 -29 5 -8 -3 -15 -1 -15 5 0 5 -12 15 -26 21 -63 29
-59 -51 -59 1309 l0 1236 40 38 c39 37 43 39 120 42 133 5 146 10 144 46 -1
20 -2 20 -8 -3 l-7 -25 -6 28 c-3 16 -1 27 6 28 6 0 -2 5 -19 10 -33 10 -165
10 -165 0 0 -7 -665 -5 -725 2 -23 3 -50 0 -63 -8z"/>
<path d="M23495 4800 c-3 -5 -20 -7 -38 -4 -18 3 -27 2 -20 -3 8 -6 5 -15 -9
-33 l-21 -25 5 27 c3 15 1 25 -3 22 -13 -8 -11 -42 3 -50 12 -8 66 -12 211
-18 121 -4 125 -9 148 -156 1 -8 1 -410 1 -893 l-2 -879 -34 29 c-18 15 -31
31 -30 34 2 4 -9 21 -25 38 -16 17 -27 31 -25 31 10 0 -28 62 -41 67 -8 3 -13
9 -10 13 3 5 -6 17 -20 28 -13 11 -22 22 -18 25 3 4 -2 9 -11 13 -9 3 -13 10
-10 15 3 5 0 9 -6 9 -6 0 -8 5 -5 10 3 6 -1 13 -9 16 -9 3 -14 10 -11 14 3 4
-8 22 -25 39 -16 18 -30 35 -31 39 -6 27 -21 52 -47 79 -16 18 -27 35 -24 38
3 3 0 5 -6 5 -7 0 -11 3 -9 8 3 11 -63 112 -75 112 -5 0 -6 5 -3 10 4 6 -7 23
-23 40 -16 16 -27 32 -24 35 3 3 -2 5 -11 5 -10 0 -14 5 -11 15 4 8 -1 17 -10
21 -9 3 -13 10 -10 15 3 5 0 9 -6 9 -6 0 -9 4 -5 9 3 5 -5 17 -17 25 -12 9
-18 16 -13 16 6 1 1 8 -10 18 -11 9 -21 26 -23 37 -2 11 -14 30 -27 41 -13 12
-21 25 -18 28 3 3 -2 8 -11 12 -9 3 -13 10 -10 15 3 5 -2 12 -10 15 -9 3 -16
13 -16 20 0 18 -67 116 -86 127 -8 4 -14 17 -14 28 0 12 -8 23 -19 26 -11 3
-17 11 -15 17 3 7 -2 19 -11 26 -8 7 -15 18 -15 25 0 8 -11 22 -25 33 -13 11
-22 22 -19 25 3 3 -4 10 -15 17 -12 6 -19 15 -16 21 4 5 1 9 -5 9 -6 0 -8 5
-5 10 3 6 -1 13 -9 16 -9 3 -14 10 -11 14 3 5 -4 15 -15 23 -11 7 -17 17 -14
20 4 4 -1 9 -10 13 -9 3 -13 10 -10 15 3 5 0 9 -5 9 -6 0 -10 3 -9 8 3 15 -22
61 -41 74 -12 8 -18 18 -14 21 3 4 1 7 -6 7 -7 0 -10 4 -7 9 3 5 -1 14 -9 21
-8 7 -15 19 -15 27 0 7 -7 16 -15 19 -8 4 -15 12 -15 20 0 7 -9 19 -20 27 -11
8 -17 17 -14 20 4 4 -1 9 -10 13 -9 3 -14 10 -11 14 3 5 -6 17 -20 29 -15 11
-26 23 -27 28 -1 21 -19 53 -28 53 -6 0 -9 4 -6 8 6 10 -49 73 -58 65 -3 -3
-6 1 -6 10 0 9 -4 17 -10 17 -5 0 -10 -4 -10 -10 0 -5 -9 -10 -20 -10 -11 0
-20 5 -20 10 0 6 -121 10 -342 10 -188 0 -338 -3 -335 -7 4 -3 -1 -12 -10 -19
-25 -17 1 -68 31 -60 11 3 26 0 33 -6 7 -6 24 -8 38 -6 14 3 25 1 25 -5 0 -5
9 -7 20 -4 11 3 20 1 20 -5 0 -5 10 -8 23 -7 12 2 28 0 35 -5 7 -4 25 -5 40
-2 18 5 22 4 13 -3 -11 -7 -9 -10 10 -16 25 -8 89 -71 81 -80 -3 -3 0 -5 6 -5
6 0 9 -7 6 -15 -4 -8 -1 -15 5 -15 6 0 8 -6 5 -13 -2 -7 2 -29 9 -48 8 -18 12
-40 10 -46 -3 -7 -1 -13 4 -13 5 0 10 -10 12 -22 9 -53 -2 -2244 -10 -2267
-23 -59 -69 -74 -219 -72 -114 2 -127 0 -144 -18 -19 -21 -15 -55 8 -64 28
-11 131 -18 117 -9 -9 7 20 10 90 9 57 -1 122 2 144 6 22 4 29 3 16 -1 -28 -9
188 -6 237 3 23 4 32 3 27 -4 -7 -13 187 -16 199 -4 4 4 17 8 29 8 15 0 23 7
25 23 6 42 -22 52 -138 51 -154 -1 -223 18 -232 64 -3 14 -3 515 0 1115 4 888
7 1089 18 1085 7 -2 10 -11 7 -19 -3 -8 0 -14 7 -14 6 0 9 -4 5 -9 -3 -5 4
-16 15 -24 11 -7 17 -17 14 -20 -4 -4 1 -9 10 -13 9 -3 14 -10 11 -14 -2 -4 5
-18 18 -32 12 -13 22 -28 22 -33 1 -15 37 -74 68 -110 15 -18 27 -37 27 -43 0
-6 9 -17 20 -25 11 -8 17 -17 13 -20 -3 -4 0 -7 7 -7 7 0 10 -3 7 -6 -7 -7 17
-44 52 -80 11 -12 17 -24 14 -28 -3 -3 2 -8 11 -12 9 -3 13 -10 10 -15 -3 -5
0 -9 6 -9 6 0 9 -4 6 -8 -3 -5 3 -18 14 -29 10 -12 17 -23 15 -25 -3 -2 8 -18
23 -35 15 -17 28 -37 30 -44 2 -8 11 -21 22 -30 11 -9 16 -19 13 -23 -3 -3 2
-8 11 -12 9 -3 14 -10 11 -14 -3 -5 3 -15 12 -22 10 -7 19 -19 21 -27 5 -22
73 -121 83 -121 5 0 8 -3 7 -7 -4 -13 32 -73 43 -73 6 0 8 -4 4 -9 -3 -5 4
-16 15 -24 11 -7 17 -17 14 -20 -4 -4 1 -9 10 -13 9 -3 14 -10 11 -14 -3 -5 4
-15 15 -23 11 -7 17 -17 13 -20 -3 -4 -2 -7 4 -7 5 0 10 -6 10 -13 0 -15 88
-145 114 -168 10 -9 15 -19 12 -23 -4 -3 -1 -6 5 -6 7 0 11 -4 10 -9 -3 -8 40
-73 72 -110 8 -10 16 -24 18 -32 2 -8 10 -20 19 -27 9 -6 13 -12 7 -12 -5 -1
1 -9 14 -20 13 -10 23 -23 22 -27 0 -4 5 -15 12 -24 7 -8 14 -22 16 -29 5 -20
62 -90 73 -90 6 0 7 -5 4 -10 -3 -6 1 -13 9 -16 9 -3 13 -10 10 -15 -3 -5 2
-12 10 -15 9 -3 13 -10 10 -15 -3 -5 2 -12 10 -15 9 -3 14 -10 11 -14 -3 -5 5
-16 17 -24 12 -9 18 -16 13 -16 -6 0 -3 -6 5 -13 8 -7 16 -18 18 -26 5 -23 81
-129 104 -145 12 -9 18 -16 13 -16 -6 0 -3 -6 5 -13 8 -7 15 -16 15 -22 1 -20
40 -75 54 -75 8 0 11 -3 8 -7 -4 -3 3 -17 15 -31 13 -13 22 -26 20 -28 -6 -11
31 -63 75 -105 45 -43 81 -58 75 -31 -1 7 3 12 9 12 8 0 10 367 8 1338 l-4
1338 28 43 28 43 137 -2 c166 -2 165 -2 157 10 -3 6 -1 10 4 10 6 0 11 7 11
15 0 8 -4 15 -10 15 -5 0 -9 6 -7 13 1 8 -9 11 -30 9 -19 -2 -33 1 -33 7 0 14
-676 15 -685 1z"/>
<path d="M31778 4805 c-3 -4 -209 -7 -456 -7 -484 0 -478 1 -470 -50 2 -19 8
-23 35 -20 17 2 57 -4 90 -12 32 -8 79 -16 105 -18 27 -2 48 -7 48 -11 0 -5 5
-5 10 -2 6 3 10 -1 10 -9 0 -9 5 -16 11 -16 5 0 7 -4 4 -10 -3 -5 -3 -10 2
-10 4 0 8 -565 8 -1255 0 -690 -3 -1255 -7 -1255 -5 0 -8 -6 -8 -13 0 -11 -49
-39 -92 -52 -5 -1 -9 -3 -10 -5 -2 -1 -39 -2 -84 -3 -87 -2 -112 -13 -110 -50
1 -18 6 -21 29 -19 15 1 27 -2 27 -8 0 -14 -76 -12 1010 -17 920 -3 991 -4
1024 -18 35 -15 51 7 51 73 1 34 4 64 8 68 12 12 8 584 -4 584 -5 0 -7 5 -4
11 10 15 -25 49 -50 49 -26 0 -50 -24 -40 -40 3 -5 1 -10 -5 -10 -7 0 -10 -7
-6 -15 3 -8 1 -15 -5 -15 -7 0 -9 -12 -5 -34 4 -21 2 -37 -4 -41 -6 -4 -11
-25 -11 -48 1 -43 -4 -100 -9 -104 -1 -2 -3 -6 -4 -10 -1 -5 -7 -17 -13 -28
-6 -11 -13 -29 -14 -39 -9 -46 -168 -196 -208 -196 -6 0 -11 -3 -11 -7 0 -5
-17 -9 -37 -10 -20 -1 -39 -5 -42 -10 -3 -4 -26 -8 -51 -8 -25 -1 -54 -5 -65
-9 -11 -4 -107 -7 -212 -6 -106 0 -193 -3 -193 -7 0 -10 -307 -7 -367 3 l-42
6 -3 1232 c-2 678 1 1249 6 1271 9 40 48 88 76 92 8 1 33 6 55 12 22 5 72 11
110 13 65 3 70 5 73 27 5 31 -9 43 -52 46 -20 2 -48 6 -64 10 -15 3 -31 3 -34
0z"/>
<path d="M2381 4790 c-37 -5 -30 -20 17 -35 22 -6 82 13 82 26 0 10 -59 15
-99 9z"/>
<path d="M8668 4792 c-32 -7 -22 -42 11 -42 40 0 87 18 75 30 -11 10 -62 18
-86 12z"/>
<path d="M8460 4776 c0 -18 38 -17 44 1 4 8 -3 13 -19 13 -15 0 -25 -6 -25
-14z"/>
<path d="M11310 4780 c0 -12 47 -13 53 -2 3 4 -8 8 -24 9 -16 1 -29 -2 -29 -7z"/>
<path d="M4713 4761 c4 -29 17 -39 17 -13 0 11 -5 24 -10 27 -6 4 -9 -2 -7
-14z"/>
<path d="M6592 4737 c-9 -11 -10 -17 -2 -22 15 -9 23 -1 18 21 -3 15 -4 16
-16 1z"/>
<path d="M10573 4706 c-12 -14 -26 -26 -32 -26 -13 0 -10 -42 4 -52 5 -4 15 2
23 14 10 13 22 18 38 15 25 -4 95 45 82 58 -4 4 -27 10 -51 12 -38 5 -46 2
-64 -21z"/>
<path d="M11530 4680 c-9 -6 -11 -10 -3 -10 7 0 10 -7 7 -15 -9 -23 18 -50 53
-52 48 -4 50 15 7 53 -44 38 -43 37 -64 24z"/>
<path d="M4678 4612 c-3 -9 -1 -26 3 -37 6 -15 8 -11 8 18 1 40 -4 48 -11 19z"/>
<path d="M2914 4572 c-18 -12 -12 -66 9 -70 12 -3 17 3 16 20 -1 35 -13 58
-25 50z"/>
<path d="M4640 4531 c0 -45 3 -52 18 -49 9 2 15 11 13 19 -1 8 -4 24 -6 37 -6
52 -25 47 -25 -7z"/>
<path d="M10404 4565 c-4 -8 -10 -13 -14 -10 -4 3 -11 -6 -14 -20 -4 -14 -12
-25 -19 -25 -8 0 -12 -15 -12 -44 0 -41 1 -43 16 -30 9 8 20 29 24 47 4 18 9
26 12 20 3 -10 8 -10 19 1 16 17 18 42 4 51 -6 4 -8 11 -5 16 4 5 4 9 0 9 -3
0 -8 -7 -11 -15z"/>
<path d="M8414 4484 c-7 -3 -8 -23 -3 -58 12 -93 5 -218 -15 -248 -16 -24 -17
-47 -12 -235 3 -114 7 -250 8 -300 1 -70 5 -93 15 -93 13 0 16 37 13 202 -1
56 3 84 15 102 15 23 16 56 9 331 -4 168 -10 305 -13 304 -3 0 -11 -3 -17 -5z"/>
<path d="M7987 4463 c-10 -9 -9 -83 1 -83 18 0 32 26 32 57 0 31 -16 44 -33
26z"/>
<path d="M10219 4443 c9 -35 27 -40 33 -9 6 29 2 36 -23 36 -14 0 -16 -5 -10
-27z"/>
<path d="M7988 4338 c-13 -27 -40 -140 -34 -144 0 -1 11 -5 24 -8 19 -6 22 -4
23 21 0 15 2 58 3 96 1 37 2 67 1 67 -1 0 -9 -15 -17 -32z"/>
<path d="M6343 4288 c-4 -7 -8 -104 -8 -215 0 -190 1 -203 18 -203 16 0 18 8
16 78 -1 42 -2 97 -1 122 2 59 -2 93 -10 106 -7 11 -3 62 7 94 7 22 -10 36
-22 18z"/>
<path d="M4195 4277 c-4 -10 -5 -21 -1 -24 10 -10 18 4 13 24 -4 17 -4 17 -12
0z"/>
<path d="M11834 4220 c-4 -16 -10 -30 -15 -30 -4 0 -8 -10 -8 -22 -1 -64 -1
-75 8 -93 5 -11 12 -29 16 -40 7 -18 9 -17 21 10 18 40 17 106 -1 141 -8 16
-12 37 -9 47 3 9 3 17 -1 17 -3 0 -8 -13 -11 -30z"/>
<path d="M10273 4178 c-19 -25 -23 -65 -8 -78 12 -10 16 -9 22 6 3 11 11 22
15 25 10 7 0 59 -12 59 -4 0 -12 -6 -17 -12z"/>
<path d="M4137 4172 c-5 -8 -10 -70 -8 -115 1 -16 5 -26 11 -22 6 3 10 0 10
-7 2 -43 29 47 30 95 0 50 -2 57 -19 57 -11 0 -22 -3 -24 -8z"/>
<path d="M2776 4133 c20 -82 54 -83 54 -2 0 26 -4 29 -30 29 -28 0 -30 -2 -24
-27z"/>
<path d="M7899 4153 c-11 -3 -16 -14 -15 -35 3 -52 41 -47 47 6 4 30 -4 37
-32 29z"/>
<path d="M2575 4129 c-4 -5 -4 -22 0 -37 l7 -27 13 25 c8 14 14 31 15 38 0 15
-26 16 -35 1z"/>
<path d="M2858 3935 c-9 -10 5 -65 16 -65 8 0 11 11 8 30 -4 29 -14 44 -24 35z"/>
<path d="M7810 3886 c0 -19 -7 -42 -16 -51 -14 -14 -15 -18 -1 -33 8 -9 16
-24 19 -32 2 -8 10 7 16 33 7 26 17 47 22 47 5 0 9 14 7 32 -2 23 -8 32 -25
34 -19 3 -22 -1 -22 -30z"/>
<path d="M12193 3875 c0 -13 3 -22 8 -19 5 3 9 14 9 25 0 10 -4 19 -9 19 -5 0
-8 -11 -8 -25z"/>
<path d="M4080 3868 c0 -9 -12 -23 -26 -32 -25 -17 -32 -65 -9 -73 11 -3 49
106 40 115 -3 3 -5 -2 -5 -10z"/>
<path d="M6684 3829 c-6 -10 11 -28 28 -29 17 0 17 20 -1 30 -14 7 -22 7 -27
-1z"/>
<path d="M8154 3677 c0 -93 2 -117 7 -82 10 67 11 215 2 215 -5 0 -8 -60 -9
-133z"/>
<path d="M3990 3628 c0 -9 -7 -29 -15 -44 -18 -36 -20 -58 -2 -47 6 4 17 8 22
8 14 0 19 75 6 88 -8 8 -11 6 -11 -5z"/>
<path d="M3230 3577 c0 -40 0 -40 24 -31 22 8 20 27 -4 49 -20 18 -20 17 -20
-18z"/>
<path d="M7740 3587 c0 -9 -4 -17 -10 -17 -5 0 -10 -7 -10 -15 0 -20 39 -19
47 1 3 8 -2 23 -11 32 -15 15 -16 15 -16 -1z"/>
<path d="M7660 3250 c0 -11 5 -20 10 -20 6 0 10 9 10 20 0 11 -4 20 -10 20 -5
0 -10 -9 -10 -20z"/>
<path d="M16588 693 c-10 -2 -18 -8 -18 -13 0 -12 56 -23 80 -15 22 7 27 25 8
25 -7 0 -22 2 -33 4 -11 2 -28 2 -37 -1z"/>
<path d="M20410 681 c0 -10 69 -25 77 -17 3 2 2 9 -2 15 -8 13 -75 15 -75 2z"/>
<path d="M20833 669 c14 -8 22 -8 30 0 8 8 3 11 -18 11 -26 -1 -28 -2 -12 -11z"/>
<path d="M13167 663 c-10 -10 -8 -165 2 -159 8 5 16 166 8 166 -2 0 -7 -3 -10
-7z"/>
<path d="M15249 663 c-23 -6 -24 -15 -24 -205 0 -198 20 -245 57 -133 16 51 7
347 -11 344 -3 -1 -13 -3 -22 -6z"/>
<path d="M16119 668 c-16 -54 -14 -358 3 -374 34 -34 43 7 45 198 l1 178 -24
0 c-13 0 -24 -1 -25 -2z"/>
<path d="M16997 653 c-9 -8 -8 -73 2 -96 6 -16 9 -15 32 10 31 35 36 73 8 73
-10 0 -19 5 -19 10 0 11 -13 13 -23 3z"/>
<path d="M13539 633 c-6 -31 -5 -84 2 -89 4 -2 6 -11 2 -19 -3 -8 -2 -23 2
-32 7 -18 11 -47 16 -130 3 -43 15 -53 37 -31 16 16 15 103 -1 116 -8 7 -14
41 -16 94 -1 45 -5 86 -7 90 -7 10 -34 10 -35 1z"/>
<path d="M15578 495 c2 -86 7 -145 13 -145 13 0 7 282 -6 287 -6 2 -9 -48 -7
-142z"/>
<path d="M16442 497 c0 -163 3 -184 24 -166 22 18 17 -8 -6 -31 -26 -26 -10
-56 32 -62 35 -6 79 35 60 54 -7 7 -12 8 -12 3 0 -4 -11 4 -24 20 -23 27 -24
33 -20 139 4 135 -3 178 -32 182 -21 3 -21 0 -22 -139z"/>
<path d="M18116 625 c-9 -24 -7 -55 3 -55 13 0 24 51 13 62 -6 6 -12 3 -16 -7z"/>
<path d="M19115 634 c-14 -6 -11 -332 4 -347 8 -8 11 -6 11 10 0 12 3 23 8 25
9 4 3 318 -6 317 -4 0 -11 -2 -17 -5z"/>
<path d="M19738 634 c-5 -4 -8 -44 -8 -88 1 -60 3 -76 11 -64 11 20 8 164 -3
152z"/>
<path d="M12077 623 c-15 -15 -8 -260 8 -273 21 -18 23 -13 25 60 5 202 -2
245 -33 213z"/>
<path d="M14655 609 c5 -14 4 -19 -4 -15 -6 4 -9 2 -6 -6 3 -7 6 -65 8 -128 3
-162 19 -143 23 28 3 122 1 142 -12 142 -11 0 -13 -6 -9 -21z"/>
<path d="M9287 574 c-11 -11 -8 -122 3 -129 5 -3 7 -11 4 -19 -3 -7 1 -14 8
-16 22 -5 1872 -11 1885 -5 7 2 16 4 19 4 25 -2 34 132 11 156 -15 14 -1915
23 -1930 9z"/>
<path d="M22022 568 c-18 -18 -16 -133 4 -152 20 -21 1904 -25 1904 -4 0 6 3
8 7 5 3 -4 12 -2 20 4 15 13 18 69 3 69 -5 0 -10 7 -10 15 0 8 5 15 10 15 14
0 12 36 -3 48 -19 16 -1919 16 -1935 0z"/>
<path d="M17711 502 c-16 -39 -18 -182 -2 -210 8 -15 20 -22 34 -20 21 3 22 8
21 90 0 54 -6 93 -13 102 -7 8 -10 19 -7 25 7 11 -3 41 -14 41 -4 0 -13 -13
-19 -28z"/>
<path d="M20800 484 c0 -40 2 -45 15 -34 10 8 12 18 6 28 -5 8 -6 23 -4 33 3
11 0 19 -6 19 -6 0 -11 -19 -11 -46z"/>
<path d="M15193 470 c0 -25 2 -35 4 -22 2 12 2 32 0 45 -2 12 -4 2 -4 -23z"/>
<path d="M13168 474 c-17 -26 -29 -187 -15 -201 32 -33 70 21 43 61 -8 13 -16
52 -18 87 -2 35 -6 59 -10 53z"/>
<path d="M16995 451 c-3 -6 -7 -45 -8 -86 -1 -81 11 -109 36 -84 11 12 12 28
3 91 -11 78 -19 98 -31 79z"/>
<path d="M12430 340 c0 -5 5 -10 11 -10 6 0 9 -6 6 -14 -8 -19 3 -28 19 -15
10 8 11 15 1 30 -12 20 -37 26 -37 9z"/>
<path d="M14680 306 c0 -10 9 -16 21 -16 24 0 21 23 -4 28 -10 2 -17 -3 -17
-12z"/>
</g>
</svg>